<svg width="320" height="38" viewBox="0 0 320 38" fill="none" xmlns="http://www.w3.org/2000/svg">
<path d="M18.9073 27.9557V29.6441H8.79735V27.9557L8.90906 27.8726C10.082 27.153 10.892 25.7967 10.892 24.4127V2.07581H10.1658C6.59103 2.07581 3.32345 4.26244 1.95497 7.58392L1.67569 8.33124H0L1.25677 0.38739H26.4758L27.7326 8.33124H26.029L25.7497 7.58392C24.3812 4.26244 21.1136 2.07581 17.5388 2.07581H16.8127V24.4127C16.8127 25.7967 17.6226 27.153 18.7956 27.8726L18.9073 27.9557Z" fill="white"/>
<path d="M37.8985 27.9557V29.6441H27.7886V27.9557L27.9003 27.8726C29.0733 27.153 29.8832 25.7967 29.8832 24.4127V7.69464C29.8832 6.33837 29.0733 4.95442 27.9003 4.23477L27.7886 4.15173V2.46331L34.1003 0.38739H35.776V12.4001C37.5355 9.85359 40.5517 8.33124 44.0707 8.33124C49.0977 8.33124 52.1139 11.4036 52.1139 16.6626V24.3851C52.1139 25.769 52.9239 27.1253 54.0968 27.8449L54.2644 27.928V29.6164H44.1265V27.928L44.2382 27.8449C45.4391 27.1253 46.249 25.769 46.249 24.3851V19.8457C46.249 14.5037 44.9364 11.4313 41.5013 11.4313C38.3733 11.4313 35.776 14.1438 35.776 17.9635V24.3851C35.776 25.769 36.5859 27.1253 37.7589 27.8449L37.8985 27.9557Z" fill="white"/>
<path d="M62.615 23.9147C64.0114 25.7415 66.2736 26.7103 68.843 26.7103C69.7646 26.7103 72.6691 26.5996 75.4898 24.0531L77.0259 24.8835C75.0989 28.0666 71.4682 30.0318 66.6366 30.0318C59.6825 30.0318 54.8789 25.9353 54.8789 19.2647C54.8789 12.8155 59.4591 8.33145 66.1898 8.33145C71.4961 8.33145 74.8754 11.127 74.8754 15.0298C74.9034 20.095 69.0105 23.3335 62.615 23.9147ZM69.8204 13.286C69.8204 11.2931 68.2844 10.0199 66.2456 10.0199C62.9501 10.0199 60.8276 13.1753 60.8276 17.8253C60.8276 19.8182 61.2186 21.5067 61.9447 22.8076C68.1727 19.4584 69.8204 15.3066 69.8204 13.286Z" fill="white"/>
<path d="M113.863 22.8628C112.187 27.0424 108.082 30.0317 102.384 30.0317C94.369 30.0317 88.3086 24.053 88.3086 15.0297C88.3086 5.97864 94.369 0 102.915 0C108.975 0 113.388 2.98933 113.388 7.30725C113.388 10.9055 110.344 12.76 106.35 10.4073C107.886 5.59114 106.071 1.63305 102.328 1.63305C97.9438 1.63305 94.2294 6.97509 94.2294 13.9502C94.2294 20.9253 97.9438 26.2674 104.647 26.2674C106.909 26.2674 110.288 25.7138 112.494 22.0325L113.863 22.8628Z" fill="white"/>
<path d="M126.766 8.33145C133.804 8.33145 138.523 12.594 138.523 19.1263C138.523 25.6585 133.859 30.0041 126.738 30.0041C119.7 30.0041 114.952 25.7692 114.952 19.2093C114.952 12.8154 119.532 8.33145 126.766 8.33145ZM126.738 28.3987C130.648 28.3987 132.659 24.6897 132.659 19.1816C132.659 13.6735 130.648 10.0199 126.738 10.0199C122.884 10.0199 120.873 13.7012 120.873 19.1816C120.845 24.6897 122.856 28.3987 126.738 28.3987Z" fill="white"/>
<path d="M141.4 10.4076H139.305V8.74687H141.4C141.484 2.87892 144.025 0.0279846 149.36 0.0279846C153.856 0.0279846 156.677 2.04856 156.677 4.89949C156.677 7.99954 153.409 9.16205 151.091 8.24865C152.18 4.17984 151.538 1.4673 149.639 1.4673C147.628 1.4673 147.349 4.29056 147.293 8.77455H150.923V10.4353H147.293V25.9355C147.293 27.1257 148.131 27.9561 149.36 27.9561H149.387V29.6445H139.277V27.9561H139.305C140.506 27.9561 141.344 27.1257 141.344 25.9355V10.4076H141.4Z" fill="white"/>
<path d="M153.465 10.4076H151.37V8.74687H153.465C153.549 2.87892 156.09 0.0279846 161.424 0.0279846C165.921 0.0279846 168.741 2.04856 168.741 4.89949C168.741 7.99954 165.474 9.16205 163.156 8.24865C164.245 4.17984 163.603 1.4673 161.704 1.4673C159.693 1.4673 159.413 4.29056 159.358 8.77455H162.988V10.4353H159.358V25.9355C159.358 27.1257 160.195 27.9561 161.396 27.9561H161.424V29.6445H151.314V27.9561H151.342C152.543 27.9561 153.381 27.1257 153.381 25.9355V10.4076H153.465Z" fill="white"/>
<path d="M170.725 23.9147C172.121 25.7415 174.383 26.7103 176.953 26.7103C177.874 26.7103 180.779 26.5996 183.599 24.0531L185.136 24.8835C183.208 28.0666 179.578 30.0318 174.746 30.0318C167.792 30.0318 162.989 25.9353 162.989 19.2647C162.989 12.8155 167.569 8.33145 174.299 8.33145C179.606 8.33145 182.985 11.127 182.985 15.0298C182.985 20.095 177.12 23.3335 170.725 23.9147ZM177.93 13.286C177.93 11.2931 176.394 10.0199 174.355 10.0199C171.06 10.0199 168.937 13.1753 168.937 17.8253C168.937 19.8182 169.328 21.5067 170.054 22.8076C176.282 19.4584 177.93 15.3066 177.93 13.286Z" fill="white"/>
<path d="M193.598 23.9147C194.994 25.7415 197.256 26.7103 199.825 26.7103C200.747 26.7103 203.652 26.5996 206.472 24.0531L208.008 24.8835C206.081 28.0666 202.451 30.0318 197.619 30.0318C190.665 30.0318 185.861 25.9353 185.861 19.2647C185.861 12.8155 190.442 8.33145 197.172 8.33145C202.479 8.33145 205.858 11.127 205.858 15.0298C205.858 20.095 199.993 23.3335 193.598 23.9147ZM200.803 13.286C200.803 11.2931 199.267 10.0199 197.228 10.0199C193.933 10.0199 191.81 13.1753 191.81 17.8253C191.81 19.8182 192.201 21.5067 192.927 22.8076C199.155 19.4584 200.803 15.3066 200.803 13.286Z" fill="white"/>
<path d="M231.328 0C237.64 0 242.304 3.07236 242.304 7.39028C242.304 10.9055 239.204 12.76 235.266 10.4073C236.746 5.59114 234.931 1.63305 230.351 1.63305C227.53 1.63305 225.24 3.15539 225.24 5.36971C225.24 11.3484 242.695 12.1511 242.695 21.645C242.695 26.6272 237.919 30.0317 231.273 30.0317C224.849 30.0317 219.403 26.8486 219.403 22.4476C219.403 19.1262 222.447 17.2717 226.441 19.6244C224.877 24.5789 227.614 28.3986 231.999 28.3986C235.099 28.3986 237.305 26.4888 237.305 23.9423C237.305 16.6351 219.794 16.2199 219.794 7.72242C219.822 3.15539 224.877 0 231.328 0Z" fill="white"/>
<path d="M254.034 27.9557V29.6441H243.924V27.9557L244.036 27.8726C245.209 27.153 246.019 25.7967 246.019 24.4127V7.69464C246.019 6.33837 245.209 4.95442 244.036 4.23477L243.924 4.15173V2.46331L250.236 0.38739H251.911V12.4001C253.671 9.85359 256.687 8.33124 260.206 8.33124C265.233 8.33124 268.249 11.4036 268.249 16.6626V24.3851C268.249 25.769 269.059 27.1253 270.232 27.8449L270.4 27.928V29.6164H260.262V27.928L260.374 27.8449C261.575 27.1253 262.385 25.769 262.385 24.3851V19.8457C262.385 14.5037 261.072 11.4313 257.637 11.4313C254.509 11.4313 251.911 14.1438 251.911 17.9635V24.3851C251.911 25.769 252.721 27.1253 253.894 27.8449L254.034 27.9557Z" fill="white"/>
<path d="M282.856 8.33145C289.894 8.33145 294.613 12.594 294.613 19.1263C294.613 25.6585 289.949 30.0041 282.828 30.0041C275.79 30.0041 271.042 25.7692 271.042 19.2093C271.014 12.8154 275.594 8.33145 282.856 8.33145ZM282.8 28.3987C286.71 28.3987 288.721 24.6897 288.721 19.1816C288.721 13.6735 286.71 10.0199 282.8 10.0199C278.946 10.0199 276.935 13.7012 276.935 19.1816C276.935 24.6897 278.946 28.3987 282.8 28.3987Z" fill="white"/>
<path d="M303.662 25.9076V32.772C303.662 34.1283 304.472 35.5122 305.645 36.2042L305.757 36.3149V37.948H295.647V36.3149L295.758 36.2042C296.931 35.5122 297.741 34.1283 297.741 32.772V16.0539C297.741 14.6699 296.931 13.3137 295.758 12.594L295.647 12.511V10.8502L301.958 8.74664H303.662V12.8431C305.31 10.0476 308.019 8.33145 311.119 8.33145C316.118 8.33145 320 12.6217 320 19.0986C320 25.5201 316.174 30.0318 310.951 30.0318C308.047 30.0318 305.477 28.6201 303.662 25.9076ZM308.941 27.3192C312.068 27.3192 314.135 24.6897 314.135 19.8182C314.135 14.9191 312.096 11.2378 308.941 11.2378C306.204 11.2378 304.109 14.0333 303.662 18.3236C304.081 24.6897 305.757 27.3192 308.941 27.3192Z" fill="white"/>
</svg>
