<svg id="Capa_1" data-name="Capa 1" xmlns="http://www.w3.org/2000/svg" viewBox="0 0 204.09 26.88"><defs><style>.cls-1{fill:#fff;}</style></defs><title>Sin título-1</title><path class="cls-1" d="M85.47,27.23A29.63,29.63,0,0,0,84,15a4.14,4.14,0,0,1,.08-2.26c0-.2.19-.36.14-.55a2.09,2.09,0,0,1,0-.44,11.85,11.85,0,0,1,0-2.93c.15-2.4.71-3.06,1.31-3.31a.64.64,0,0,1,.23,0,1.3,1.3,0,0,0,.12-.35,3,3,0,0,0,.07-.47h0a3.48,3.48,0,0,1-.37-1.09,1.49,1.49,0,0,1,.29-1.36H80.35V17.88L71.68,2.24H65V29.05h6.13V13.37l8.7,15.68h5.52C85.33,28.7,85.42,28,85.47,27.23Z" transform="translate(-1.84 -2.17)"/><path class="cls-1" d="M103.32,16a9.28,9.28,0,0,0-2.68-3.08,6.41,6.41,0,0,0,.91-3.35,6.47,6.47,0,0,0-.64-2.86,7.22,7.22,0,0,0-1.76-2.33,8.63,8.63,0,0,0-5.76-2.16L88,2.18a1.55,1.55,0,0,1,.39.42c.18.33,0,.84,0,1.31s.12.8-.2.72c-.54-.15-.14,1.07-1,.84a2.11,2.11,0,0,0-.28.6.68.68,0,0,1-.12.27,4.23,4.23,0,0,1,.59,1.48,4,4,0,0,1,0,.5,12,12,0,0,0,2.9-.09c.52-.13,1.51-.91,1.73-.91a1,1,0,0,1,.6.23.5.5,0,0,1,.48-.35h1.58a.75.75,0,0,1,.69-.57h2a.83.83,0,0,1,.74.89V14a.5.5,0,0,1-.5.5H92.42a.5.5,0,0,1-.5-.5V12.55a.5.5,0,0,1,.5-.5h2.32V9.28H93.21a.52.52,0,0,1-.51-.53V8.49a1.14,1.14,0,0,1-.28.12,5,5,0,0,0-2.67.67c-.3.13-1.65.38-2.31.51,0,.4-.07.68,0,.7,1.54.59,1.71.73,2.37.53.18-.06.42-.6.47-.63.27-.2.22.27.34.25a.94.94,0,0,1,.38,0l0-.17c0-.27-.35-.37-.17-.55a2.15,2.15,0,0,1,.77-.28,2,2,0,0,1,.24,0c.6-.15.59-.32.57.51l.57,1c0,.16,0,.16-.19.35a2.69,2.69,0,0,1-.77.33c-.56.18-.64,0-.69-.22a.35.35,0,0,1-.34.09c-.67-.18-2.27.56-3.68.41,1.15,1.43,1.75,8,.27,14.06-.34,1.92.07,1.75,1.08,2.16a4,4,0,0,1,1.1.65l4.42,0a10.81,10.81,0,0,0,3.95-.71,10.54,10.54,0,0,0,3.24-1.94,9.29,9.29,0,0,0,2.2-2.9,8.1,8.1,0,0,0,.8-3.55A8,8,0,0,0,103.32,16Zm-5.47,5.05A3.26,3.26,0,0,1,97,22a4.64,4.64,0,0,1-1.3.64,5,5,0,0,1-1.54.24H92.45V17h1.67a5,5,0,0,1,1.54.24,4.64,4.64,0,0,1,1.3.64,3.2,3.2,0,0,1,.89.95,2.2,2.2,0,0,1,.33,1.14A2.11,2.11,0,0,1,97.85,21.05Z" transform="translate(-1.84 -2.17)"/><path class="cls-1" d="M118.1,23.51v.06a0,0,0,0,1,0,0h0s0,0,0,0v-.12a0,0,0,0,0,0,0h0v.06h0" transform="translate(-1.84 -2.17)"/><path class="cls-1" d="M118.08,23.54a.24.24,0,0,0,0-.12,0,0,0,0,0,0,0h0c0,.05,0,.09,0,.13h0" transform="translate(-1.84 -2.17)"/><path class="cls-1" d="M21.83,2.26V19.07A9.41,9.41,0,0,1,21,23a10.26,10.26,0,0,1-2.16,3.15,9.87,9.87,0,0,1-3.16,2.12,9.77,9.77,0,0,1-3.85.77h-.11a9.85,9.85,0,0,1-3.84-.81A10.19,10.19,0,0,1,4.68,26a10,10,0,0,1-2.14-3.24,9.8,9.8,0,0,1-.7-3.86L7.91,19A4,4,0,0,0,9,21.76a3.82,3.82,0,0,0,2.8,1.18,4,4,0,0,0,1.51-.28,3.55,3.55,0,0,0,1.25-.83,4.38,4.38,0,0,0,.87-1.25A3.79,3.79,0,0,0,15.77,19V2.26Z" transform="translate(-1.84 -2.17)"/><path class="cls-1" d="M33,29a10.13,10.13,0,0,1-7.1-2.87,10.39,10.39,0,0,1-2.23-3.27A10,10,0,0,1,22.82,19V2.28H29V18.93a3.83,3.83,0,0,0,1.2,2.8A4,4,0,0,0,33,22.86a3.7,3.7,0,0,0,1.53-.33,4.34,4.34,0,0,0,1.27-.87,3.8,3.8,0,0,0,.84-1.28,4.2,4.2,0,0,0,.29-1.56V2.28h6.15V18.79a9.47,9.47,0,0,1-.74,3.92A10.19,10.19,0,0,1,37,28.15a9.91,9.91,0,0,1-3.91.85Z" transform="translate(-1.84 -2.17)"/><polygon class="cls-1" points="56.15 26.79 53.41 17.5 50.96 9.55 45.57 26.79 39.03 26.79 48.16 0.06 54 0.06 62.65 26.79 56.15 26.79"/><path class="cls-1" d="M133.73,22c-.31,0-.62.09-.93.11l-1,.07V29h-6.07V2.27h6.07a11.77,11.77,0,0,1,7.7,3,9.93,9.93,0,0,1,2.33,3.14,8.89,8.89,0,0,1,.84,3.83,9.11,9.11,0,0,1-.89,4,9.62,9.62,0,0,1-2.52,3.2L145.11,29H138Zm-1.9-6a6.06,6.06,0,0,0,1.85-.34,5.65,5.65,0,0,0,1.54-.82,3.9,3.9,0,0,0,1-1.19,2.92,2.92,0,0,0,.38-1.44,2.83,2.83,0,0,0-.38-1.43,4,4,0,0,0-1-1.17,5.65,5.65,0,0,0-1.54-.82,6.38,6.38,0,0,0-1.85-.35Z" transform="translate(-1.84 -2.17)"/><rect class="cls-1" x="143.59" y="0.11" width="6.07" height="26.7"/><path class="cls-1" d="M161.62,29a9.57,9.57,0,0,1-2.49-.33,8.69,8.69,0,0,1-6.45-8.46h6.07a2.53,2.53,0,0,0,.47,1.63,3.24,3.24,0,0,0,.82.79,2.73,2.73,0,0,0,1.4.45,3.28,3.28,0,0,0,1.47-.27,2.33,2.33,0,0,0,.81-.53,3,3,0,0,0,.47-.61,1.71,1.71,0,0,0,.19-.58,2.61,2.61,0,0,0,0-.91,1.84,1.84,0,0,0-.19-.59,2.42,2.42,0,0,0-.47-.62,2.85,2.85,0,0,0-.81-.54,8.18,8.18,0,0,0-.84-.32c-.3-.09-.62-.19-.95-.31-.6-.19-1.22-.4-1.87-.63a10.78,10.78,0,0,1-1.94-.94,7.64,7.64,0,0,1-2.11-1.93,7.46,7.46,0,0,1-1.49-5.23,7.07,7.07,0,0,1,.8-2.71,7.51,7.51,0,0,1,1.62-2.07,7.74,7.74,0,0,1,2.15-1.38,7.94,7.94,0,0,1,2.55-.61,8.66,8.66,0,0,1,2.76.24,8.06,8.06,0,0,1,2.47,1A7.58,7.58,0,0,1,168,5.19a7,7,0,0,1,1.23,2.15,7.15,7.15,0,0,1,.43,2.48h-6a1.19,1.19,0,0,0-.52-1.12,3.56,3.56,0,0,0-.91-.42l-.34,0a1.56,1.56,0,0,0-.61,0,2.24,2.24,0,0,0-.7.24,1.46,1.46,0,0,0-.58.62,1.53,1.53,0,0,0-.1,1.17,1.68,1.68,0,0,0,.71,1,7.72,7.72,0,0,0,1.12.51c.4.15.83.29,1.29.44s.82.24,1.23.38a13.25,13.25,0,0,1,1.27.49,8.44,8.44,0,0,1,3.7,3.08,8,8,0,0,1,1.34,4.52,8,8,0,0,1-1.34,4.47,8.37,8.37,0,0,1-3.7,3.08,8.71,8.71,0,0,1-1.89.62,9.81,9.81,0,0,1-1.94.19" transform="translate(-1.84 -2.17)"/><polygon class="cls-1" points="184.47 0.11 184.47 6.23 179.41 6.23 179.41 26.81 173.34 26.81 173.34 6.23 168.31 6.23 168.31 0.11 184.47 0.11"/><polygon class="cls-1" points="117.03 26.84 114.3 17.56 111.84 9.6 106.45 26.84 99.92 26.84 109.04 0.11 114.88 0.11 123.53 26.84 117.03 26.84"/><polygon class="cls-1" points="197.6 26.79 194.86 17.5 192.41 9.55 187.02 26.79 180.49 26.79 189.61 0.06 195.45 0.06 204.09 26.79 197.6 26.79"/></svg>