<svg id="Capa_1" data-name="Capa 1" xmlns="http://www.w3.org/2000/svg" viewBox="0 0 204.09 26.88"><defs><style>.cls-1{fill:#f5c200;}</style></defs><title>logo-amarillo</title><path class="cls-1" d="M86.22,30.27A29.66,29.66,0,0,0,84.72,18a4.11,4.11,0,0,1,.08-2.25c0-.2.19-.36.14-.55a2.09,2.09,0,0,1,0-.44,11.9,11.9,0,0,1,0-2.93c.15-2.41.71-3.07,1.31-3.32a.64.64,0,0,1,.23,0,1.3,1.3,0,0,0,.12-.35,3,3,0,0,0,.07-.47h0a3.4,3.4,0,0,1-.37-1.08,1.5,1.5,0,0,1,.29-1.37H81.1V20.91L72.43,5.27H65.76V32.08h6.13V16.4l8.7,15.68h5.52C86.08,31.74,86.17,31,86.22,30.27Z" transform="translate(-2.59 -5.2)"/><path class="cls-1" d="M104.07,19A9.28,9.28,0,0,0,101.39,16a6.66,6.66,0,0,0,.27-6.21A7.22,7.22,0,0,0,99.9,7.41a8.63,8.63,0,0,0-5.76-2.16l-5.37,0a1.59,1.59,0,0,1,.39.43c.18.33,0,.84,0,1.31s.12.79-.2.71c-.54-.15-.14,1.07-1,.84a2.11,2.11,0,0,0-.28.6.68.68,0,0,1-.12.27,4.35,4.35,0,0,1,.59,1.49,4,4,0,0,1,0,.5,12,12,0,0,0,2.9-.09c.52-.13,1.51-.91,1.73-.91a1,1,0,0,1,.6.23.5.5,0,0,1,.48-.35h1.58a.76.76,0,0,1,.69-.58h2a.84.84,0,0,1,.74.9v6.51a.5.5,0,0,1-.5.5H93.17a.5.5,0,0,1-.5-.5V15.59a.5.5,0,0,1,.5-.5h2.32V12.31H94a.51.51,0,0,1-.51-.52v-.26a1.14,1.14,0,0,1-.28.12,5.08,5.08,0,0,0-2.67.66c-.3.13-1.65.38-2.31.51,0,.4-.07.68,0,.7,1.54.59,1.71.73,2.37.53.18-.06.42-.6.47-.63.27-.2.22.27.34.25a.94.94,0,0,1,.38.05l0-.17c0-.27-.35-.37-.17-.55a2.15,2.15,0,0,1,.77-.28,2,2,0,0,1,.24,0c.6-.15.59-.32.57.51l.57,1c0,.16,0,.16-.19.36a2.69,2.69,0,0,1-.77.33c-.56.18-.64,0-.69-.22a.35.35,0,0,1-.34.09c-.67-.18-2.27.56-3.68.41,1.15,1.43,1.75,8,.27,14.06-.34,1.92.07,1.75,1.08,2.16a4,4,0,0,1,1.1.64l4.42,0a10.81,10.81,0,0,0,3.95-.71,10.54,10.54,0,0,0,3.24-1.94,9.29,9.29,0,0,0,2.2-2.9,8.1,8.1,0,0,0,.8-3.55A8,8,0,0,0,104.07,19Zm-5.47,5a3.26,3.26,0,0,1-.89.93,4.64,4.64,0,0,1-1.3.64,5,5,0,0,1-1.54.24H93.2V20h1.67a5,5,0,0,1,1.54.24,4.64,4.64,0,0,1,1.3.64,3.2,3.2,0,0,1,.89.95A2.2,2.2,0,0,1,98.93,23,2.11,2.11,0,0,1,98.6,24.08Z" transform="translate(-2.59 -5.2)"/><path class="cls-1" d="M22.58,5.3V22.11a9.44,9.44,0,0,1-.8,3.89,10.51,10.51,0,0,1-2.16,3.15,9.84,9.84,0,0,1-3.16,2.11,9.59,9.59,0,0,1-3.85.77H12.5a10,10,0,0,1-3.84-.8A10.22,10.22,0,0,1,5.43,29a9.72,9.72,0,0,1-2.84-7.09L8.66,22a3.93,3.93,0,0,0,1.11,2.79A3.83,3.83,0,0,0,12.57,26a4.06,4.06,0,0,0,1.51-.29,3.67,3.67,0,0,0,1.25-.82,4.3,4.3,0,0,0,.87-1.26,3.79,3.79,0,0,0,.32-1.54V5.3Z" transform="translate(-2.59 -5.2)"/><path class="cls-1" d="M33.72,32a10,10,0,0,1-3.86-.74,10.24,10.24,0,0,1-3.24-2.13,10.39,10.39,0,0,1-2.23-3.27A10,10,0,0,1,23.57,22V5.32h6.15V22a3.85,3.85,0,0,0,1.2,2.8,4,4,0,0,0,2.84,1.12,3.7,3.7,0,0,0,1.53-.33,4.16,4.16,0,0,0,1.27-.87,3.61,3.61,0,0,0,.84-1.27,4.24,4.24,0,0,0,.29-1.56V5.32h6.15v16.5a9.44,9.44,0,0,1-.74,3.92A10.3,10.3,0,0,1,41,29a10.47,10.47,0,0,1-3.21,2.2,9.74,9.74,0,0,1-3.91.85Z" transform="translate(-2.59 -5.2)"/><polygon class="cls-1" points="56.15 26.79 53.41 17.5 50.96 9.55 45.57 26.79 39.03 26.79 48.16 0.06 54 0.06 62.65 26.79 56.15 26.79"/><path class="cls-1" d="M134.48,25.07c-.31.05-.62.08-.93.11l-1,.07V32h-6.07V5.3h6.07a11.81,11.81,0,0,1,4.23.84,11.69,11.69,0,0,1,3.47,2.16,9.89,9.89,0,0,1,2.33,3.13,8.93,8.93,0,0,1,.84,3.83,9.12,9.12,0,0,1-.89,4A9.59,9.59,0,0,1,140,22.45L145.86,32h-7.14Zm-1.9-6a6.07,6.07,0,0,0,1.85-.35,5.39,5.39,0,0,0,1.54-.82,3.9,3.9,0,0,0,1-1.19,2.92,2.92,0,0,0,.38-1.44,2.8,2.8,0,0,0-.38-1.42,4,4,0,0,0-1-1.17,5.67,5.67,0,0,0-1.54-.83,6.37,6.37,0,0,0-1.85-.34Z" transform="translate(-2.59 -5.2)"/><rect class="cls-1" x="143.59" y="0.11" width="6.07" height="26.7"/><path class="cls-1" d="M162.37,32a9.57,9.57,0,0,1-2.49-.33,8.39,8.39,0,0,1-2.36-1,8.7,8.7,0,0,1-3-3.17,8.58,8.58,0,0,1-1.08-4.25h6.07a2.55,2.55,0,0,0,.47,1.63,3.35,3.35,0,0,0,.82.78,2.65,2.65,0,0,0,1.4.46,3.29,3.29,0,0,0,1.47-.28,2.33,2.33,0,0,0,.81-.53,2.78,2.78,0,0,0,.47-.61,1.65,1.65,0,0,0,.19-.58,2.74,2.74,0,0,0,0-.45,3,3,0,0,0,0-.46,1.92,1.92,0,0,0-.19-.59,2.56,2.56,0,0,0-.47-.61,3.09,3.09,0,0,0-.81-.55,8.2,8.2,0,0,0-.84-.31l-.95-.31c-.6-.19-1.22-.4-1.87-.63a10.84,10.84,0,0,1-1.94-.95,7.56,7.56,0,0,1-3.6-7.16,7.12,7.12,0,0,1,.8-2.71A7.87,7.87,0,0,1,159,5.94a8.21,8.21,0,0,1,2.55-.61,8.4,8.4,0,0,1,2.76.25,8.3,8.3,0,0,1,2.47,1,8,8,0,0,1,1.91,1.65A7.07,7.07,0,0,1,170,10.37a7.16,7.16,0,0,1,.43,2.49h-6a1.19,1.19,0,0,0-.52-1.12,3.25,3.25,0,0,0-.91-.42l-.34-.06a2.07,2.07,0,0,0-.61,0,2.27,2.27,0,0,0-.7.25,1.43,1.43,0,0,0-.58.61,1.53,1.53,0,0,0-.1,1.17,1.74,1.74,0,0,0,.71,1,9,9,0,0,0,1.12.5c.4.15.83.3,1.29.44s.82.25,1.23.39.85.3,1.28.48a8.53,8.53,0,0,1,3.69,3.08,8.07,8.07,0,0,1,1.34,4.52,8,8,0,0,1-1.34,4.48,8.47,8.47,0,0,1-3.69,3.08,8.94,8.94,0,0,1-1.9.61,9.81,9.81,0,0,1-1.94.19" transform="translate(-2.59 -5.2)"/><polygon class="cls-1" points="184.47 0.11 184.47 6.23 179.41 6.23 179.41 26.81 173.34 26.81 173.34 6.23 168.31 6.23 168.31 0.11 184.47 0.11"/><polygon class="cls-1" points="117.03 26.84 114.3 17.56 111.84 9.6 106.45 26.84 99.92 26.84 109.04 0.11 114.88 0.11 123.53 26.84 117.03 26.84"/><polygon class="cls-1" points="197.6 26.79 194.86 17.5 192.41 9.55 187.02 26.79 180.49 26.79 189.61 0.06 195.45 0.06 204.09 26.79 197.6 26.79"/></svg>