<svg id="Capa_1" data-name="Capa 1" xmlns="http://www.w3.org/2000/svg" viewBox="0 0 204.09 26.88"><defs><style>.cls-1{fill:#a98827;}</style></defs><title>logo-dorado</title><path class="cls-1" d="M86.22,30.79a29.63,29.63,0,0,0-1.5-12.24,4.15,4.15,0,0,1,.08-2.26c0-.2.19-.36.14-.55a2.09,2.09,0,0,1,0-.44,11.78,11.78,0,0,1,0-2.92c.15-2.41.71-3.07,1.31-3.32A.64.64,0,0,1,86.45,9a1.3,1.3,0,0,0,.12-.35,3,3,0,0,0,.07-.47h0a3.4,3.4,0,0,1-.37-1.08,1.5,1.5,0,0,1,.29-1.37H81.1V21.44L72.43,5.8H65.76V32.61h6.13V16.93l8.7,15.68h5.52C86.08,32.27,86.17,31.52,86.22,30.79Z" transform="translate(-2.59 -5.73)"/><path class="cls-1" d="M104.07,19.56a9.28,9.28,0,0,0-2.68-3.08,6.66,6.66,0,0,0,.27-6.21A7.22,7.22,0,0,0,99.9,7.94a8.63,8.63,0,0,0-5.76-2.16l-5.37,0a1.55,1.55,0,0,1,.39.42c.18.33,0,.85,0,1.32s.12.79-.2.71C88.46,8,88.86,9.26,88,9a2.11,2.11,0,0,0-.28.6.68.68,0,0,1-.12.27,4.23,4.23,0,0,1,.59,1.48,4,4,0,0,1,0,.51,12,12,0,0,0,2.9-.09c.52-.14,1.51-.92,1.73-.92a1,1,0,0,1,.6.23.5.5,0,0,1,.48-.35h1.58a.75.75,0,0,1,.69-.57h2a.83.83,0,0,1,.74.89V17.6a.5.5,0,0,1-.5.5H93.17a.5.5,0,0,1-.5-.5V16.11a.5.5,0,0,1,.5-.5h2.32V12.84H94a.51.51,0,0,1-.51-.52v-.26a1.14,1.14,0,0,1-.28.12,5.08,5.08,0,0,0-2.67.66c-.3.13-1.65.38-2.31.51,0,.4-.07.68,0,.7,1.54.59,1.71.73,2.37.53.18-.06.42-.6.47-.63.27-.2.22.27.34.25a.94.94,0,0,1,.38.05l0-.17c0-.27-.35-.37-.17-.55a2.15,2.15,0,0,1,.77-.28,2,2,0,0,1,.24,0c.6-.15.59-.32.57.51l.57,1c0,.16,0,.16-.19.35a2.69,2.69,0,0,1-.77.33c-.56.18-.64,0-.69-.22a.35.35,0,0,1-.34.09c-.67-.18-2.27.56-3.68.41,1.15,1.44,1.75,8,.27,14.06-.34,1.93.07,1.76,1.08,2.17a3.79,3.79,0,0,1,1.1.64l4.42,0a10.81,10.81,0,0,0,3.95-.71,10.54,10.54,0,0,0,3.24-1.94,9.29,9.29,0,0,0,2.2-2.9,8.1,8.1,0,0,0,.8-3.55A8,8,0,0,0,104.07,19.56ZM98.6,24.61a3.26,3.26,0,0,1-.89.93,4.64,4.64,0,0,1-1.3.64,5,5,0,0,1-1.54.24H93.2v-5.9h1.67a5,5,0,0,1,1.54.24,4.64,4.64,0,0,1,1.3.64,3.2,3.2,0,0,1,.89,1,2.2,2.2,0,0,1,.33,1.14A2.11,2.11,0,0,1,98.6,24.61Z" transform="translate(-2.59 -5.73)"/><path class="cls-1" d="M22.58,5.83v16.8a9.41,9.41,0,0,1-.8,3.89,10.43,10.43,0,0,1-2.16,3.16,9.93,9.93,0,0,1-7,2.88H12.5a9.85,9.85,0,0,1-3.84-.81,10.07,10.07,0,0,1-5.37-5.44,9.77,9.77,0,0,1-.7-3.86l6.07.08a4,4,0,0,0,1.11,2.79,3.82,3.82,0,0,0,2.8,1.18,4,4,0,0,0,1.51-.28,3.55,3.55,0,0,0,1.25-.83,4.25,4.25,0,0,0,.87-1.25,3.79,3.79,0,0,0,.32-1.54V5.83Z" transform="translate(-2.59 -5.73)"/><path class="cls-1" d="M33.72,32.56a10,10,0,0,1-7.1-2.87,10.39,10.39,0,0,1-2.23-3.27,10,10,0,0,1-.82-3.89V5.84h6.15V22.49a3.83,3.83,0,0,0,1.2,2.8,4,4,0,0,0,2.84,1.13,3.7,3.7,0,0,0,1.53-.33,4.34,4.34,0,0,0,1.27-.87A3.61,3.61,0,0,0,37.4,24a4.29,4.29,0,0,0,.29-1.57V5.84h6.15V22.35a9.44,9.44,0,0,1-.74,3.92A10.3,10.3,0,0,1,41,29.51a10.47,10.47,0,0,1-3.21,2.2,9.91,9.91,0,0,1-3.91.85Z" transform="translate(-2.59 -5.73)"/><polygon class="cls-1" points="56.15 26.79 53.41 17.5 50.96 9.55 45.57 26.79 39.03 26.79 48.16 0.06 54 0.06 62.65 26.79 56.15 26.79"/><path class="cls-1" d="M134.48,25.59c-.31.05-.62.09-.93.11l-1,.08v6.75h-6.07V5.83h6.07a11.81,11.81,0,0,1,4.23.84,11.66,11.66,0,0,1,3.47,2.15A9.93,9.93,0,0,1,142.61,12a8.89,8.89,0,0,1,.84,3.83,9.12,9.12,0,0,1-.89,4A9.69,9.69,0,0,1,140,23l5.82,9.55h-7.14Zm-1.9-6a6.38,6.38,0,0,0,1.85-.35A5.65,5.65,0,0,0,136,18.4a3.9,3.9,0,0,0,1-1.19,2.92,2.92,0,0,0,.38-1.44,2.86,2.86,0,0,0-.38-1.43,4.08,4.08,0,0,0-1-1.17,5.65,5.65,0,0,0-1.54-.82,6.06,6.06,0,0,0-1.85-.34Z" transform="translate(-2.59 -5.73)"/><rect class="cls-1" x="143.59" y="0.11" width="6.07" height="26.7"/><path class="cls-1" d="M162.37,32.56a9.57,9.57,0,0,1-2.49-.33,8.68,8.68,0,0,1-2.36-1,8.78,8.78,0,0,1-3-3.17,8.61,8.61,0,0,1-1.08-4.25h6.07A2.5,2.5,0,0,0,160,25.4a3.24,3.24,0,0,0,.82.79,2.84,2.84,0,0,0,1.4.46,3.29,3.29,0,0,0,1.47-.28,2.33,2.33,0,0,0,.81-.53,3,3,0,0,0,.47-.61,1.71,1.71,0,0,0,.19-.58,2.84,2.84,0,0,0,0-.45,3,3,0,0,0,0-.46,1.84,1.84,0,0,0-.19-.59,2.6,2.6,0,0,0-.47-.62,3.08,3.08,0,0,0-.81-.54,8.2,8.2,0,0,0-.84-.31l-.95-.32c-.6-.18-1.22-.4-1.87-.63a10.78,10.78,0,0,1-1.94-.94A7.64,7.64,0,0,1,156,17.86a7.46,7.46,0,0,1-1.49-5.23,7.12,7.12,0,0,1,.8-2.71A7.75,7.75,0,0,1,159,6.47a7.94,7.94,0,0,1,2.55-.61,8.66,8.66,0,0,1,2.76.24,8.32,8.32,0,0,1,2.47,1,7.79,7.79,0,0,1,1.91,1.65A7,7,0,0,1,170,10.9a7.15,7.15,0,0,1,.43,2.48h-6a1.2,1.2,0,0,0-.52-1.12,3.56,3.56,0,0,0-.91-.42,1.75,1.75,0,0,1-.34-.05,1.56,1.56,0,0,0-.61,0,2.27,2.27,0,0,0-.7.25,1.38,1.38,0,0,0-.58.61,1.53,1.53,0,0,0-.1,1.17,1.68,1.68,0,0,0,.71,1,7.72,7.72,0,0,0,1.12.51c.4.15.83.3,1.29.44s.82.24,1.23.38.85.31,1.28.49a8.47,8.47,0,0,1,3.69,3.08,8.23,8.23,0,0,1,0,9,8.53,8.53,0,0,1-3.69,3.08,8.94,8.94,0,0,1-1.9.61,9.81,9.81,0,0,1-1.94.19" transform="translate(-2.59 -5.73)"/><polygon class="cls-1" points="184.47 0.11 184.47 6.23 179.41 6.23 179.41 26.81 173.34 26.81 173.34 6.23 168.31 6.23 168.31 0.11 184.47 0.11"/><polygon class="cls-1" points="117.03 26.84 114.3 17.56 111.84 9.6 106.45 26.84 99.92 26.84 109.04 0.11 114.88 0.11 123.53 26.84 117.03 26.84"/><polygon class="cls-1" points="197.6 26.79 194.86 17.5 192.41 9.55 187.02 26.79 180.49 26.79 189.61 0.06 195.45 0.06 204.09 26.79 197.6 26.79"/></svg>